<?xml version="1.0" encoding="UTF-8" standalone="no"?>
<svg
   version="1.1"
   width="153.07423"
   height="43.882309"
   id="svg2855"
   sodipodi:docname="fedora_whitelogo.svg"
   inkscape:version="1.4.2 (ebf0e940d0, 2025-05-08)"
   inkscape:export-filename="/var/home/sstendahl/Documents/GitHub/SjoerdOS/files/system/usr/share/pixmaps/fedora-logo-smallpng"
   inkscape:export-xdpi="93.444855"
   inkscape:export-ydpi="93.444855"
   xmlns:inkscape="http://www.inkscape.org/namespaces/inkscape"
   xmlns:sodipodi="http://sodipodi.sourceforge.net/DTD/sodipodi-0.dtd"
   xmlns="http://www.w3.org/2000/svg"
   xmlns:svg="http://www.w3.org/2000/svg"
   xmlns:rdf="http://www.w3.org/1999/02/22-rdf-syntax-ns#"
   xmlns:cc="http://creativecommons.org/ns#"
   xmlns:dc="http://purl.org/dc/elements/1.1/">
  <metadata
     id="metadata20">
    <rdf:RDF>
      <cc:Work
         rdf:about="">
        <dc:format>image/svg+xml</dc:format>
        <dc:type
           rdf:resource="http://purl.org/dc/dcmitype/StillImage" />
      </cc:Work>
    </rdf:RDF>
  </metadata>
  <sodipodi:namedview
     pagecolor="#ffffff"
     bordercolor="#666666"
     borderopacity="1"
     objecttolerance="10"
     gridtolerance="10"
     guidetolerance="10"
     inkscape:pageopacity="0"
     inkscape:pageshadow="2"
     inkscape:window-width="1920"
     inkscape:window-height="1131"
     id="namedview18"
     showgrid="false"
     inkscape:zoom="3.4942386"
     inkscape:cx="90.43458"
     inkscape:cy="47.506773"
     inkscape:window-x="0"
     inkscape:window-y="0"
     inkscape:window-maximized="1"
     inkscape:current-layer="svg2855"
     inkscape:showpageshadow="2"
     inkscape:pagecheckerboard="0"
     inkscape:deskcolor="#d1d1d1" />
  <defs
     id="defs2857" />
  <path
     id="path1616"
     style="opacity:1;fill:#ffffff;fill-opacity:1;fill-rule:nonzero;stroke:none;stroke-width:0.282261"
     d="M 21.94078,0 C 9.8277536,0 0.0122701,9.8166534 0.00437,21.926961 H 0 v 16.980116 h 0.00437 c 0.00546,2.749335 2.2339383,4.975231 4.9846832,4.975231 h 0.023711 0.00437 16.9327898 c 12.114547,-0.0076 21.92708,-9.823056 21.92708,-21.936432 C 43.877027,9.8273834 34.059128,0 21.940615,0 Z M 153.03379,34.641981 V 24.090333 c 0.0118,-4.376366 0.0848,13.020819 0,10.551648 z"
     sodipodi:nodetypes="cccccsccccccccc" />
  <text
     xml:space="preserve"
     style="font-style:normal;font-variant:normal;font-weight:bold;font-stretch:normal;font-size:21.5638px;font-family:'Adwaita Sans';-inkscape-font-specification:'Adwaita Sans Bold';text-align:start;writing-mode:lr-tb;direction:ltr;text-anchor:start;fill:#ffffff;fill-opacity:1;stroke-width:0.11231"
     x="48.201363"
     y="30.435413"
     id="text2"><tspan
       sodipodi:role="line"
       id="tspan2"
       x="48.201363"
       y="30.435413"
       style="fill:#ffffff;fill-opacity:1;stroke-width:0.11231">SjoerdOS</tspan></text>
  <path
     style="font-weight:500;font-size:210.182px;font-family:'Adwaita Sans';-inkscape-font-specification:'Adwaita Sans Medium';fill:#ffffff;fill-opacity:0;stroke-width:0.173653"
     d="M 15.004217,32.964906 C 13.37,31.914195 12.14306,30.731817 11.323397,29.417767 c -0.819663,-1.314046 -1.214442,-2.696836 -1.184344,-4.148363 0.01403,-0.676405 0.333113,-1.708797 0.89489,-2.654062 0.808852,-1.31475 2.863495,-2.073194 4.377346,-2.10828 l 0.410726,2.790935 c -2.960979,0.55448 -2.545939,3.147581 -1.399474,4.822218 0.513186,0.807341 1.276479,1.536791 2.289877,2.188349 0.93123,0.598728 1.819758,0.982917 2.665585,1.152566 0.854958,0.175518 1.629716,0.144643 2.324273,-0.09263 0.700428,-0.246397 1.264896,-0.702782 1.693405,-1.369155 0.334589,-0.520319 0.492773,-1.057288 0.47455,-1.610907 -0.0032,-0.556879 -0.198499,-1.166274 -0.585831,-1.828185 -0.378202,-0.656041 -0.971607,-1.398838 -1.780215,-2.228388 l -1.888854,-1.969221 c -1.752204,-1.810399 -2.818356,-3.463561 -3.198455,-4.959483 -0.370971,-1.490054 -0.101532,-2.942531 0.808316,-4.357432 0.768968,-1.19582 1.739428,-2.04275 2.911376,-2.540792 1.17782,-0.5071702 2.473003,-0.6550282 3.885547,-0.443575 1.418414,0.202325 2.853432,0.770144 4.305055,1.703457 1.469884,0.945051 2.576182,2.02406 3.318897,3.237025 0.742716,1.212966 1.214971,2.473411 1.192052,3.813436 -0.01304,1.186559 -0.198521,2.711259 -1.078932,3.595064 -0.185255,0.185971 -0.534532,0.507018 -0.940349,0.745824 -0.623336,0.366803 -3.138571,0.968362 -2.904563,0.929053 l 0.163306,-3.074728 c 2.044137,-0.444971 1.874001,-2.329319 1.229823,-3.649175 -0.350774,-1.180312 -1.442195,-2.138896 -2.729483,-2.966552 -0.812544,-0.522419 -1.626407,-0.85215 -2.441585,-0.98919 -0.80018,-0.140299 -1.535483,-0.09051 -2.205911,0.149373 -0.655429,0.236622 -1.182723,0.665299 -1.581882,1.28603 -0.316979,0.492933 -0.460488,1.007081 -0.430526,1.542444 0.02996,0.535362 0.239914,1.121936 0.629855,1.75972 0.399072,0.643656 0.990848,1.378953 1.775329,2.205891 l 1.870235,1.937898 c 0.864037,0.903894 1.558844,1.769945 2.08442,2.598155 0.534707,0.83408 0.894311,1.639447 1.078816,2.416099 0.199506,0.773394 0.227168,1.533072 0.08299,2.279035 -0.129175,0.742705 -0.428564,1.479192 -0.898165,2.209465 -0.786577,1.223205 -1.78834,2.088716 -3.00529,2.596532 -1.21695,0.507819 -2.557456,0.645889 -4.021517,0.414215 -1.464064,-0.231674 -2.967554,-0.843517 -4.510474,-1.835529 z"
     id="text1-6"
     aria-label="S"
     sodipodi:nodetypes="sssscccsccscccccsccsscsscccsccssccccccssss" />
</svg>
