<?xml version="1.0" encoding="UTF-8" standalone="no"?>
<svg
   version="1.1"
   width="153.07423"
   height="43.882309"
   id="svg2855"
   sodipodi:docname="fedora_logo.svg"
   inkscape:version="1.4.2 (ebf0e940d0, 2025-05-08)"
   inkscape:export-filename="/var/home/sstendahl/Documents/GitHub/SjoerdOS/files/system/usr/share/pixmaps/fedora-logo-smallpng"
   inkscape:export-xdpi="93.444855"
   inkscape:export-ydpi="93.444855"
   xmlns:inkscape="http://www.inkscape.org/namespaces/inkscape"
   xmlns:sodipodi="http://sodipodi.sourceforge.net/DTD/sodipodi-0.dtd"
   xmlns="http://www.w3.org/2000/svg"
   xmlns:svg="http://www.w3.org/2000/svg"
   xmlns:rdf="http://www.w3.org/1999/02/22-rdf-syntax-ns#"
   xmlns:cc="http://creativecommons.org/ns#"
   xmlns:dc="http://purl.org/dc/elements/1.1/">
  <metadata
     id="metadata20">
    <rdf:RDF>
      <cc:Work
         rdf:about="">
        <dc:format>image/svg+xml</dc:format>
        <dc:type
           rdf:resource="http://purl.org/dc/dcmitype/StillImage" />
      </cc:Work>
    </rdf:RDF>
  </metadata>
  <sodipodi:namedview
     pagecolor="#ffffff"
     bordercolor="#666666"
     borderopacity="1"
     objecttolerance="10"
     gridtolerance="10"
     guidetolerance="10"
     inkscape:pageopacity="0"
     inkscape:pageshadow="2"
     inkscape:window-width="1920"
     inkscape:window-height="1131"
     id="namedview18"
     showgrid="false"
     inkscape:zoom="6.9884772"
     inkscape:cx="60.528208"
     inkscape:cy="17.743494"
     inkscape:window-x="0"
     inkscape:window-y="0"
     inkscape:window-maximized="1"
     inkscape:current-layer="svg2855"
     inkscape:showpageshadow="2"
     inkscape:pagecheckerboard="0"
     inkscape:deskcolor="#d1d1d1" />
  <defs
     id="defs2857" />
  <path
     id="path1616"
     style="opacity:1;fill:#51a2da;fill-opacity:1;fill-rule:nonzero;stroke:none;stroke-width:0.282261"
     d="M 21.94078,0 C 9.8277536,0 0.0122701,9.8166534 0.00437,21.926961 H 0 v 16.980116 h 0.00437 c 0.00546,2.749335 2.2339383,4.975231 4.9846832,4.975231 h 0.023711 0.00437 16.9327898 c 12.114547,-0.0076 21.92708,-9.823056 21.92708,-21.936432 C 43.877027,9.8273834 34.059128,0 21.940615,0 Z M 153.03379,34.641981 V 24.090333 c 0.0118,-4.376366 0.0848,13.020819 0,10.551648 z"
     sodipodi:nodetypes="cccccsccccccccc" />
  <text
     xml:space="preserve"
     style="font-style:normal;font-variant:normal;font-weight:bold;font-stretch:normal;font-size:21.5638px;font-family:'Adwaita Sans';-inkscape-font-specification:'Adwaita Sans Bold';text-align:start;writing-mode:lr-tb;direction:ltr;text-anchor:start;fill:#51a2da;fill-opacity:1;stroke-width:0.11231"
     x="48.201363"
     y="30.435413"
     id="text2"><tspan
       sodipodi:role="line"
       id="tspan2"
       x="48.201363"
       y="30.435413"
       style="fill:#51a2da;fill-opacity:1;stroke-width:0.11231">SjoerdOS</tspan></text>
  <path
     style="font-weight:500;font-size:210.182px;font-family:'Adwaita Sans';-inkscape-font-specification:'Adwaita Sans Medium';fill:#ffffff;fill-opacity:0;stroke-width:0.173653"
     d="M 15.004217,32.964906 C 13.37,31.914195 12.14306,30.731817 11.323397,29.417767 c -0.819663,-1.314046 -1.214442,-2.696836 -1.184344,-4.148363 0.01403,-0.676405 0.333113,-1.708797 0.89489,-2.654062 0.808852,-1.31475 2.863495,-2.073194 4.377346,-2.10828 l 0.410726,2.790935 c -2.960979,0.55448 -2.545939,3.147581 -1.399474,4.822218 0.513186,0.807341 1.276479,1.536791 2.289877,2.188349 0.93123,0.598728 1.819758,0.982917 2.665585,1.152566 0.854958,0.175518 1.629716,0.144643 2.324273,-0.09263 0.700428,-0.246397 1.264896,-0.702782 1.693405,-1.369155 0.334589,-0.520319 0.492773,-1.057288 0.47455,-1.610907 -0.0032,-0.556879 -0.198499,-1.166274 -0.585831,-1.828185 -0.378202,-0.656041 -0.971607,-1.398838 -1.780215,-2.228388 l -1.888854,-1.969221 c -1.752204,-1.810399 -2.818356,-3.463561 -3.198455,-4.959483 -0.370971,-1.490054 -0.101532,-2.942531 0.808316,-4.357432 0.768968,-1.19582 1.739428,-2.04275 2.911376,-2.540792 1.17782,-0.5071702 2.473003,-0.6550282 3.885547,-0.443575 1.418414,0.202325 2.853432,0.770144 4.305055,1.703457 1.469884,0.945051 2.576182,2.02406 3.318897,3.237025 0.742716,1.212966 1.214971,2.473411 1.192052,3.813436 -0.01304,1.186559 -0.198521,2.711259 -1.078932,3.595064 -0.185255,0.185971 -0.534532,0.507018 -0.940349,0.745824 -0.623336,0.366803 -3.138571,0.968362 -2.904563,0.929053 l 0.163306,-3.074728 c 2.044137,-0.444971 1.874001,-2.329319 1.229823,-3.649175 -0.350774,-1.180312 -1.442195,-2.138896 -2.729483,-2.966552 -0.812544,-0.522419 -1.626407,-0.85215 -2.441585,-0.98919 -0.80018,-0.140299 -1.535483,-0.09051 -2.205911,0.149373 -0.655429,0.236622 -1.182723,0.665299 -1.581882,1.28603 -0.316979,0.492933 -0.460488,1.007081 -0.430526,1.542444 0.02996,0.535362 0.239914,1.121936 0.629855,1.75972 0.399072,0.643656 0.990848,1.378953 1.775329,2.205891 l 1.870235,1.937898 c 0.864037,0.903894 1.558844,1.769945 2.08442,2.598155 0.534707,0.83408 0.894311,1.639447 1.078816,2.416099 0.199506,0.773394 0.227168,1.533072 0.08299,2.279035 -0.129175,0.742705 -0.428564,1.479192 -0.898165,2.209465 -0.786577,1.223205 -1.78834,2.088716 -3.00529,2.596532 -1.21695,0.507819 -2.557456,0.645889 -4.021517,0.414215 -1.464064,-0.231674 -2.967554,-0.843517 -4.510474,-1.835529 z"
     id="text1-6"
     aria-label="S"
     sodipodi:nodetypes="sssscccsccscccccsccsscsscccsccssccccccssss" />
  <path
     style="font-weight:500;font-size:210.182px;font-family:'Adwaita Sans';-inkscape-font-specification:'Adwaita Sans Medium';fill:#ffffff;stroke-width:0.18758"
     d="M 13.682683,33.420744 C 11.917405,32.285767 10.592067,31.008564 9.7066676,29.589131 8.8212696,28.1697 8.3948294,26.676013 8.4273417,25.108076 8.4424927,24.377424 8.7871686,23.262237 9.3940006,22.241162 10.267721,20.820973 12.487142,20.001703 14.122402,19.963803 l 0.443666,3.014762 c -3.198445,0.598949 -2.750119,3.400012 -1.511711,5.208952 0.554344,0.872089 1.378851,1.660039 2.473521,2.363851 1.005914,0.646744 1.965701,1.061744 2.87936,1.244999 0.923524,0.189594 1.760416,0.156242 2.510675,-0.100057 0.756602,-0.266157 1.366339,-0.759144 1.829213,-1.478958 0.361424,-0.562048 0.532292,-1.142081 0.512609,-1.740099 -0.0035,-0.60154 -0.214419,-1.259808 -0.632813,-1.974802 -0.408534,-0.708655 -1.049529,-1.511023 -1.922986,-2.4071 L 18.6636,21.968201 c -1.892727,-1.95559 -3.044383,-3.741332 -3.454965,-5.357223 -0.400722,-1.609553 -0.109675,-3.178517 0.873141,-4.70689 0.830638,-1.291723 1.878927,-2.2065764 3.144863,-2.7445598 1.272279,-0.547844 2.671333,-0.7075597 4.197161,-0.4791485 1.532167,0.2185508 3.082272,0.8319077 4.650312,1.8400703 1.587766,1.020844 2.782787,2.186388 3.585066,3.49663 0.802281,1.310243 1.31241,2.671773 1.287653,4.119265 -0.01409,1.28172 -0.214443,2.928698 -1.16546,3.883382 -0.200113,0.200885 -0.577401,0.54768 -1.015764,0.805637 -0.673326,0.39622 -3.390279,1.046024 -3.137503,1.003562 l 0.176402,-3.321316 c 2.208073,-0.480656 2.024292,-2.516126 1.328453,-3.941831 -0.378906,-1.27497 -1.557856,-2.310432 -2.948383,-3.204463 -0.877709,-0.564317 -1.756841,-0.920491 -2.637395,-1.068522 -0.864353,-0.151551 -1.658627,-0.09777 -2.382821,0.161352 -0.707993,0.255599 -1.277575,0.718655 -1.708746,1.389167 -0.342401,0.532465 -0.497418,1.087848 -0.465053,1.666145 0.03236,0.578298 0.259154,1.211914 0.680368,1.900847 0.431076,0.695275 1.070312,1.489541 1.917706,2.382799 l 2.020225,2.093314 c 0.933332,0.976384 1.683861,1.91189 2.251587,2.806522 0.577588,0.900972 0.966032,1.770927 1.165334,2.609865 0.215507,0.835419 0.245387,1.656022 0.08965,2.461808 -0.139535,0.802269 -0.462935,1.597823 -0.970196,2.386662 -0.84966,1.321303 -1.931763,2.256227 -3.246309,2.804768 -1.314548,0.548545 -2.762559,0.697688 -4.344035,0.447434 -1.581479,-0.250254 -3.205546,-0.911166 -4.872205,-1.982733 z"
     id="text1"
     aria-label="S"
     sodipodi:nodetypes="sssscccsccscccccsccsscsscccsccssccccccssss" />
</svg>
